<svg version="1.1" id="Layer_1" xmlns="http://www.w3.org/2000/svg" xmlns:xlink="http://www.w3.org/1999/xlink" x="0px" y="0px"
	 width="100%" viewBox="0 0 512 512" enable-background="new 0 0 512 512" xml:space="preserve">
<path fill="#FFFFFF" opacity="1.000000" stroke="none" 
	d="
M329.000000,513.000000 
	C219.359970,513.000000 110.219933,513.000000 1.039949,513.000000 
	C1.039949,342.401611 1.039949,171.803207 1.039949,1.102403 
	C171.556702,1.102403 342.113495,1.102403 512.835144,1.102403 
	C512.835144,171.666534 512.835144,342.333252 512.835144,513.000000 
	C451.803192,513.000000 390.651581,513.000000 329.000000,513.000000 
M108.635605,182.253082 
	C108.360840,182.475845 108.236610,182.763596 107.914688,183.728012 
	C91.660828,216.165543 75.406967,248.603088 58.827152,281.664917 
	C42.707275,313.874451 26.587395,346.083954 10.432956,378.362518 
	C11.412436,378.739441 11.703357,378.949249 11.994457,378.949493 
	C43.304169,378.976624 74.614113,379.030182 105.922890,378.864990 
	C107.352531,378.857483 109.388748,377.183014 110.105064,375.762024 
	C125.833023,344.561462 141.414093,313.286835 157.738480,282.055481 
	C158.102707,282.367493 158.613190,282.606537 158.810333,283.001862 
	C174.206635,313.874817 189.573227,344.762604 204.972412,375.634125 
	C205.536469,376.764862 206.401611,377.745422 208.033936,378.963837 
	C238.306442,378.976471 268.579865,378.876465 298.850494,379.120819 
	C303.498932,379.158356 305.814087,377.710724 307.852997,373.567322 
	C322.297760,344.213043 336.996124,314.983307 351.712280,285.763580 
	C352.315308,284.566223 353.901733,283.864166 355.194183,283.639313 
	C370.795074,314.760010 386.395966,345.880737 402.117065,377.832153 
	C403.773956,378.222015 405.430054,378.948029 407.087830,378.951813 
	C437.063141,379.020294 467.038605,379.004059 497.014069,378.993378 
	C498.231415,378.992920 499.448669,378.869263 501.040009,378.782684 
	C500.151672,376.876526 499.560150,375.523071 498.900421,374.203735 
	C467.983276,312.375916 437.065002,250.548691 406.119385,188.735138 
	C404.942261,186.383835 403.494476,184.168060 402.059082,181.173782 
	C386.116547,148.880249 370.173981,116.586708 353.882935,83.587181 
	C352.818359,85.394257 352.355133,86.082191 351.987915,86.818039 
	C336.625854,117.602898 321.269348,148.390549 305.933136,179.188293 
	C305.498505,180.061096 305.291321,181.047150 304.559326,182.386276 
	C304.423889,182.938202 304.288452,183.490128 303.806732,184.656616 
	C288.214722,215.794800 272.622681,246.932983 256.617615,278.323669 
	C256.377197,278.544922 256.183685,278.801575 255.534622,279.073151 
	C255.372437,279.030579 255.210236,278.987976 254.897232,278.244843 
	C238.789520,246.136887 222.681793,214.028946 206.462936,181.266006 
	C190.367111,149.023804 174.271271,116.781593 157.832443,83.852318 
	C156.549423,86.295769 155.687576,87.870399 154.885361,89.474846 
	C141.788910,115.668335 128.684402,141.857819 115.624031,168.069290 
	C113.334618,172.664017 111.237427,177.354538 108.635605,182.253082 
z"/>
<path fill="#488EB6" opacity="1.000000" stroke="none" 
	d="
M256.037140,279.093597 
	C256.183685,278.801575 256.377197,278.544922 256.923279,278.586456 
	C258.733673,279.221893 260.237732,279.916168 261.743286,279.919525 
	C290.673950,279.983826 319.604797,279.972595 348.535583,279.950012 
	C349.907928,279.948944 351.280060,279.699463 352.821045,279.549194 
	C352.513153,278.500580 352.443573,278.003021 352.230957,277.576782 
	C337.104919,247.254837 321.978638,216.932983 306.784210,186.645294 
	C306.260071,185.600510 305.045685,184.901978 304.153015,184.042053 
	C304.288452,183.490128 304.423889,182.938202 305.105011,182.320938 
	C311.106781,182.182129 316.562744,182.057678 322.018982,182.043839 
	C348.736877,181.976105 375.454834,181.937836 402.172791,181.889130 
	C403.494476,184.168060 404.942261,186.383835 406.119385,188.735138 
	C437.065002,250.548691 467.983276,312.375916 498.900421,374.203735 
	C499.560150,375.523071 500.151672,376.876526 501.040009,378.782684 
	C499.448669,378.869263 498.231415,378.992920 497.014069,378.993378 
	C467.038605,379.004059 437.063141,379.020294 407.087830,378.951813 
	C405.430054,378.948029 403.773956,378.222015 402.403412,377.366333 
	C403.541199,375.732880 404.577820,374.658142 405.217041,373.384033 
	C419.980194,343.957977 434.704224,314.512299 449.411774,285.058350 
	C449.962280,283.955872 450.273132,282.733704 450.699585,281.556488 
	C449.963898,281.308716 449.651520,281.111725 449.338898,281.111328 
	C419.040314,281.075287 388.741638,281.033508 358.443298,281.112396 
	C357.303986,281.115356 356.167725,282.298309 355.030029,282.931396 
	C353.901733,283.864166 352.315308,284.566223 351.712280,285.763580 
	C336.996124,314.983307 322.297760,344.213043 307.852997,373.567322 
	C305.814087,377.710724 303.498932,379.158356 298.850494,379.120819 
	C268.579865,378.876465 238.306442,378.976471 207.711472,378.574463 
	C222.973633,347.009399 238.569626,315.839294 254.112534,284.642792 
	C254.978424,282.904846 255.405716,280.948364 256.037140,279.093597 
z"/>
<path fill="#488EB6" opacity="1.000000" stroke="none" 
	d="
M59.153107,281.040619 
	C75.406967,248.603088 91.660828,216.165543 108.308975,183.601410 
	C114.108772,183.316116 119.514046,183.031143 124.919861,183.020416 
	C149.706528,182.971237 174.493408,183.019836 199.280029,182.957092 
	C201.175232,182.952286 203.068939,182.354904 205.231323,182.002655 
	C205.857559,181.955215 206.215820,181.938095 206.574081,181.920990 
	C222.681793,214.028946 238.789520,246.136887 254.685745,278.907898 
	C252.672119,279.714752 250.870071,279.982269 249.067810,279.983887 
	C220.181641,280.010132 191.295410,279.981903 162.409378,280.049744 
	C160.531113,280.054169 158.654449,280.737671 156.323090,281.080994 
	C123.630463,281.051361 91.391785,281.045990 59.153107,281.040619 
z"/>
<path fill="#1A72A4" opacity="1.000000" stroke="none" 
	d="
M58.990128,281.352783 
	C91.391785,281.045990 123.630463,281.051361 156.381775,281.312042 
	C156.894394,281.567383 157.023239,282.026367 157.023239,282.026367 
	C141.414093,313.286835 125.833023,344.561462 110.105064,375.762024 
	C109.388748,377.183014 107.352531,378.857483 105.922890,378.864990 
	C74.614113,379.030182 43.304169,378.976624 11.994457,378.949493 
	C11.703357,378.949249 11.412436,378.739441 10.432956,378.362518 
	C26.587395,346.083954 42.707275,313.874451 58.990128,281.352783 
z"/>
<path fill="#77AAC8" opacity="1.000000" stroke="none" 
	d="
M157.380859,282.040924 
	C157.023239,282.026367 156.894394,281.567383 156.835724,281.336304 
	C158.654449,280.737671 160.531113,280.054169 162.409378,280.049744 
	C191.295410,279.981903 220.181641,280.010132 249.067810,279.983887 
	C250.870071,279.982269 252.672119,279.714752 254.761139,279.258179 
	C255.210236,278.987976 255.372437,279.030579 255.785889,279.083374 
	C255.405716,280.948364 254.978424,282.904846 254.112534,284.642792 
	C238.569626,315.839294 222.973633,347.009399 207.257721,378.490540 
	C206.401611,377.745422 205.536469,376.764862 204.972412,375.634125 
	C189.573227,344.762604 174.206635,313.874817 158.810333,283.001862 
	C158.613190,282.606537 158.102707,282.367493 157.380859,282.040924 
z"/>
<path fill="#1B73A5" opacity="1.000000" stroke="none" 
	d="
M206.518509,181.593506 
	C206.215820,181.938095 205.857559,181.955215 204.766907,181.992584 
	C172.373489,182.008850 140.712479,182.004822 109.051460,182.000809 
	C111.237427,177.354538 113.334618,172.664017 115.624031,168.069290 
	C128.684402,141.857819 141.788910,115.668335 154.885361,89.474846 
	C155.687576,87.870399 156.549423,86.295769 157.832443,83.852318 
	C174.271271,116.781593 190.367111,149.023804 206.518509,181.593506 
z"/>
<path fill="#77AAC8" opacity="1.000000" stroke="none" 
	d="
M402.115936,181.531464 
	C375.454834,181.937836 348.736877,181.976105 322.018982,182.043839 
	C316.562744,182.057678 311.106781,182.182129 305.314392,182.117996 
	C305.291321,181.047150 305.498505,180.061096 305.933136,179.188293 
	C321.269348,148.390549 336.625854,117.602898 351.987915,86.818039 
	C352.355133,86.082191 352.818359,85.394257 353.882935,83.587181 
	C370.173981,116.586708 386.116547,148.880249 402.115936,181.531464 
z"/>
<path fill="#1A73A5" opacity="1.000000" stroke="none" 
	d="
M355.112122,283.285339 
	C356.167725,282.298309 357.303986,281.115356 358.443298,281.112396 
	C388.741638,281.033508 419.040314,281.075287 449.338898,281.111328 
	C449.651520,281.111725 449.963898,281.308716 450.699585,281.556488 
	C450.273132,282.733704 449.962280,283.955872 449.411774,285.058350 
	C434.704224,314.512299 419.980194,343.957977 405.217041,373.384033 
	C404.577820,374.658142 403.541199,375.732880 402.343323,376.950989 
	C386.395966,345.880737 370.795074,314.760010 355.112122,283.285339 
z"/>
<path fill="#1972A4" opacity="1.000000" stroke="none" 
	d="
M303.979858,184.349335 
	C305.045685,184.901978 306.260071,185.600510 306.784210,186.645294 
	C321.978638,216.932983 337.104919,247.254837 352.230957,277.576782 
	C352.443573,278.003021 352.513153,278.500580 352.821045,279.549194 
	C351.280060,279.699463 349.907928,279.948944 348.535583,279.950012 
	C319.604797,279.972595 290.673950,279.983826 261.743286,279.919525 
	C260.237732,279.916168 258.733673,279.221893 257.129761,278.460205 
	C272.622681,246.932983 288.214722,215.794800 303.979858,184.349335 
z"/>
<path fill="#5E9BBE" opacity="1.000000" stroke="none" 
	d="
M108.843536,182.126953 
	C140.712479,182.004822 172.373489,182.008850 204.498917,182.022919 
	C203.068939,182.354904 201.175232,182.952286 199.280029,182.957092 
	C174.493408,183.019836 149.706528,182.971237 124.919861,183.020416 
	C119.514046,183.031143 114.108772,183.316116 108.483078,183.295578 
	C108.236610,182.763596 108.360840,182.475845 108.843536,182.126953 
z"/>
</svg>